<?xml version="1.0" encoding="utf-8"?>
<!-- Generator: Adobe Illustrator 16.0.0, SVG Export Plug-In . SVG Version: 6.00 Build 0)  -->
<!DOCTYPE svg PUBLIC "-//W3C//DTD SVG 1.1//EN" "http://www.w3.org/Graphics/SVG/1.1/DTD/svg11.dtd">
<svg version="1.1" id="Layer_1" xmlns="http://www.w3.org/2000/svg" xmlns:xlink="http://www.w3.org/1999/xlink" x="0px" y="0px"
	 width="48.914px" height="12.487px" viewBox="0 0 48.914 12.487" enable-background="new 0 0 48.914 12.487" xml:space="preserve">
<g>
	<path fill="#00A79D" d="M5.028,9.774C4.844,9.91,4.618,10.012,4.35,10.08s-0.55,0.102-0.846,0.102
		c-0.768,0-1.362-0.196-1.782-0.588c-0.42-0.392-0.63-0.968-0.63-1.728V5.214H0.096v-1.44h0.996V2.202h1.872v1.572h1.608v1.44H2.964
		v2.628c0,0.272,0.07,0.482,0.21,0.63c0.14,0.148,0.338,0.222,0.594,0.222c0.296,0,0.548-0.08,0.756-0.24L5.028,9.774z"/>
	<path fill="#00A79D" d="M8.778,3.774c0.38-0.16,0.818-0.24,1.314-0.24v1.728c-0.208-0.016-0.348-0.024-0.42-0.024
		c-0.536,0-0.956,0.15-1.26,0.45c-0.304,0.3-0.456,0.75-0.456,1.35v3.048H6.083V3.63h1.788v0.852
		C8.096,4.17,8.397,3.934,8.778,3.774z"/>
	<path fill="#00A79D" d="M12.39,9.756c-0.54-0.284-0.962-0.678-1.266-1.182c-0.304-0.504-0.456-1.076-0.456-1.716
		s0.152-1.212,0.456-1.716c0.304-0.504,0.726-0.898,1.266-1.182c0.54-0.284,1.15-0.426,1.83-0.426c0.68,0,1.288,0.142,1.824,0.426
		C16.58,4.244,17,4.638,17.304,5.142c0.304,0.504,0.456,1.076,0.456,1.716s-0.152,1.212-0.456,1.716
		C17,9.078,16.58,9.472,16.044,9.756c-0.536,0.284-1.144,0.426-1.824,0.426C13.54,10.182,12.93,10.04,12.39,9.756z M15.402,8.16
		c0.308-0.324,0.462-0.758,0.462-1.302S15.71,5.88,15.402,5.556C15.094,5.232,14.7,5.07,14.22,5.07s-0.876,0.162-1.188,0.486
		c-0.312,0.324-0.468,0.758-0.468,1.302s0.156,0.978,0.468,1.302c0.312,0.324,0.708,0.486,1.188,0.486S15.094,8.484,15.402,8.16z"/>
	<path fill="#FFFFFF" d="M20.274,9.756c-0.548-0.284-0.976-0.678-1.284-1.182c-0.308-0.504-0.462-1.076-0.462-1.716
		s0.154-1.212,0.462-1.716c0.308-0.504,0.736-0.898,1.284-1.182c0.548-0.284,1.166-0.426,1.854-0.426
		c0.68,0,1.274,0.142,1.782,0.426c0.508,0.284,0.878,0.69,1.11,1.218l-1.453,0.78c-0.336-0.592-0.82-0.888-1.452-0.888
		c-0.488,0-0.892,0.16-1.212,0.48c-0.32,0.32-0.48,0.756-0.48,1.308c0,0.552,0.16,0.988,0.48,1.308c0.32,0.32,0.724,0.48,1.212,0.48
		c0.64,0,1.124-0.296,1.452-0.888l1.453,0.792c-0.232,0.512-0.603,0.912-1.11,1.2c-0.508,0.288-1.102,0.432-1.782,0.432
		C21.44,10.182,20.822,10.04,20.274,9.756z"/>
	<path fill="#FFFFFF" d="M26.196,2.43c-0.216-0.2-0.324-0.448-0.324-0.744s0.108-0.544,0.324-0.744c0.216-0.2,0.496-0.3,0.84-0.3
		s0.624,0.096,0.84,0.288C28.093,1.122,28.2,1.362,28.2,1.65c0,0.312-0.107,0.57-0.324,0.774C27.66,2.628,27.38,2.73,27.036,2.73
		S26.412,2.63,26.196,2.43z M26.101,3.63h1.872v6.456h-1.872V3.63z"/>
	<path fill="#FFFFFF" d="M36,7.386h-4.885c0.088,0.4,0.296,0.716,0.624,0.948s0.736,0.348,1.225,0.348
		c0.336,0,0.634-0.05,0.894-0.15c0.26-0.1,0.502-0.258,0.727-0.474l0.996,1.08c-0.608,0.696-1.496,1.044-2.664,1.044
		c-0.729,0-1.372-0.142-1.933-0.426c-0.56-0.284-0.992-0.678-1.296-1.182c-0.304-0.504-0.456-1.076-0.456-1.716
		c0-0.632,0.15-1.202,0.45-1.71c0.3-0.508,0.712-0.904,1.236-1.188c0.523-0.284,1.109-0.426,1.758-0.426
		c0.632,0,1.204,0.136,1.716,0.408s0.914,0.662,1.206,1.17c0.292,0.508,0.438,1.098,0.438,1.77C36.036,6.906,36.023,7.074,36,7.386z
		 M31.62,5.31c-0.288,0.24-0.465,0.568-0.528,0.984h3.18c-0.063-0.408-0.24-0.734-0.527-0.978c-0.288-0.244-0.641-0.366-1.057-0.366
		C32.264,4.95,31.907,5.07,31.62,5.31z"/>
	<path fill="#FFFFFF" d="M41.448,9.774c-0.185,0.136-0.41,0.238-0.679,0.306c-0.268,0.068-0.55,0.102-0.846,0.102
		c-0.768,0-1.362-0.196-1.782-0.588c-0.42-0.392-0.63-0.968-0.63-1.728V5.214h-0.996v-1.44h0.996V2.202h1.872v1.572h1.608v1.44
		h-1.608v2.628c0,0.272,0.07,0.482,0.21,0.63s0.338,0.222,0.594,0.222c0.296,0,0.548-0.08,0.757-0.24L41.448,9.774z"/>
	<path fill="#FFFFFF" d="M48.792,3.63l-2.916,6.852c-0.297,0.744-0.662,1.268-1.099,1.572c-0.436,0.304-0.962,0.456-1.578,0.456
		c-0.336,0-0.668-0.052-0.996-0.156s-0.596-0.248-0.804-0.432l0.685-1.332c0.144,0.128,0.31,0.228,0.497,0.3
		c0.188,0.072,0.374,0.108,0.559,0.108c0.256,0,0.464-0.062,0.624-0.186s0.304-0.33,0.432-0.618l0.024-0.06L41.424,3.63h1.932
		l1.813,4.38l1.823-4.38H48.792z"/>
</g>
</svg>
